<?xml version="1.0" standalone="no"?>
<!DOCTYPE svg PUBLIC "-//W3C//DTD SVG 20010904//EN"
 "http://www.w3.org/TR/2001/REC-SVG-20010904/DTD/svg10.dtd">
<svg version="1.0" xmlns="http://www.w3.org/2000/svg"
 width="842.000000pt" height="646.000000pt" viewBox="0 0 842.000000 646.000000"
 preserveAspectRatio="xMidYMid meet">
<metadata>
Created by potrace 1.16, written by Peter Selinger 2001-2019
</metadata>
<g transform="translate(0.000000,646.000000) scale(0.100000,-0.100000)"
fill="#000000" stroke="none">
<path d="M4045 5234 c-16 -2 -66 -9 -110 -15 -44 -5 -125 -21 -180 -34 -511
-121 -951 -435 -1240 -885 -56 -87 -172 -323 -181 -369 l-7 -31 500 0 500 1
54 62 c144 167 328 284 546 345 91 25 112 27 283 27 171 0 192 -2 285 -28 120
-33 275 -108 366 -177 37 -27 105 -90 152 -140 l86 -90 496 0 c406 0 497 2
501 13 12 31 -105 273 -201 417 -322 483 -797 791 -1365 885 -91 15 -422 28
-485 19z m198 -299 l28 -84 92 -3 92 -3 -73 -53 c-62 -45 -72 -56 -66 -75 3
-12 15 -50 26 -85 11 -35 19 -65 17 -67 -2 -2 -34 19 -71 46 -37 27 -72 49
-78 49 -6 0 -41 -22 -78 -49 -37 -27 -69 -48 -70 -46 -2 2 8 40 22 84 14 44
26 82 26 85 0 3 -32 29 -71 58 l-71 53 91 3 90 3 28 84 c15 47 30 85 33 85 3
0 18 -38 33 -85z m-569 -263 l79 -3 -62 -45 c-35 -25 -61 -51 -58 -57 20 -55
38 -119 35 -123 -3 -2 -29 14 -58 36 -30 22 -56 40 -60 40 -4 0 -30 -18 -60
-40 -29 -22 -55 -38 -57 -37 -2 2 6 30 17 62 11 32 20 63 20 69 0 6 -26 29
-58 51 l-57 40 75 5 75 5 18 55 c28 89 28 89 51 15 l22 -70 78 -3z m1207 68
l23 -69 74 -3 74 -3 -56 -40 c-30 -22 -56 -47 -56 -55 1 -8 9 -40 19 -70 10
-30 17 -57 16 -58 -2 -2 -28 15 -58 37 -29 23 -57 41 -61 41 -4 0 -31 -18 -60
-40 -29 -22 -56 -40 -59 -40 -4 0 -2 12 4 28 6 15 17 46 24 70 l13 43 -60 42
-60 42 76 3 75 3 22 69 c12 39 23 70 25 70 1 0 13 -31 25 -70z m-1751 -385
l13 -45 56 0 56 -1 -25 -20 c-14 -12 -33 -27 -44 -34 -17 -13 -18 -16 -2 -61
9 -26 14 -49 11 -52 -2 -2 -22 10 -45 28 l-40 32 -42 -31 c-23 -17 -43 -29
-45 -27 -2 2 4 25 12 51 9 26 15 48 13 50 -2 1 -23 16 -47 34 l-44 31 61 0 60
0 12 50 c7 27 15 48 20 45 4 -2 13 -25 20 -50z m2215 5 l16 -49 57 -3 56 -3
-43 -28 c-46 -31 -46 -30 -25 -113 l7 -29 -34 26 c-19 14 -39 28 -45 32 -6 3
-30 -8 -54 -25 -48 -36 -45 -42 -25 48 6 28 3 34 -36 62 l-43 32 56 0 56 0 17
50 c9 28 18 50 20 50 2 0 11 -22 20 -50z"/>
<path d="M4065 4189 c-241 -35 -501 -196 -632 -391 l-26 -38 -1093 0 c-602 0
-1094 -2 -1094 -4 0 -5 125 -369 270 -786 l78 -225 918 -3 919 -2 25 -37 c41
-61 161 -183 225 -228 83 -59 188 -110 292 -142 80 -24 103 -27 258 -27 149
-1 180 2 250 22 94 27 224 87 291 133 69 47 183 158 229 223 l40 56 922 0 922
0 20 63 c24 75 294 870 310 910 6 16 11 33 11 38 0 5 -422 9 -1094 9 l-1093 0
-25 38 c-66 99 -210 227 -329 290 -173 93 -392 130 -594 101z m-2120 -683 c33
-14 35 -18 35 -61 l0 -46 -46 27 c-109 64 -212 -22 -175 -147 13 -44 42 -67
95 -76 36 -6 36 -5 36 30 0 33 -2 36 -32 39 -30 3 -33 6 -33 38 l0 35 78 3 77
3 0 -96 c0 -95 0 -96 -27 -107 -16 -6 -62 -11 -103 -12 -67 -1 -80 2 -117 27
-51 35 -73 86 -73 170 0 80 28 132 89 164 52 27 142 31 196 9z m411 -29 c36
-42 33 -106 -7 -151 l-30 -35 55 -70 c31 -39 56 -72 56 -75 0 -4 -24 -6 -54
-6 l-54 0 -42 58 c-43 58 -67 82 -82 82 -4 0 -8 -31 -8 -70 l0 -70 -45 0 -45
0 0 188 0 187 116 -5 c112 -5 117 -6 140 -33z m402 0 l3 -37 -80 0 -81 0 0
-30 0 -29 72 -3 c78 -3 74 1 69 -63 -1 -12 -16 -15 -71 -15 l-70 0 0 -45 0
-45 80 0 80 0 0 -35 0 -35 -125 0 -125 0 0 185 0 184 113 3 c61 2 117 3 122 2
6 0 11 -17 13 -37z m770 0 c-3 -31 -4 -32 -55 -35 l-53 -3 0 -150 0 -149 -50
0 -50 0 0 150 0 150 -50 0 -50 0 0 38 0 37 156 -3 155 -3 -3 -32z m472 -143
c33 -98 60 -182 60 -186 0 -4 -22 -8 -48 -8 -48 0 -49 1 -58 38 -9 37 -9 37
-65 40 l-56 3 -12 -41 c-11 -39 -13 -40 -56 -40 -25 0 -45 3 -45 8 0 4 26 86
58 182 l59 175 49 5 c27 3 50 5 52 4 1 -1 29 -82 62 -180z m246 178 c5 -4 25
-42 44 -85 19 -43 37 -80 41 -83 4 -2 22 33 40 77 36 86 55 104 108 95 14 -2
29 -5 34 -5 4 -1 7 -84 7 -186 l0 -185 -45 0 -45 0 0 116 c0 63 -3 113 -7 111
-5 -3 -19 -35 -33 -71 -24 -64 -25 -66 -60 -66 -34 0 -36 2 -65 73 l-30 72 -3
-117 -3 -118 -44 0 -45 0 0 183 c0 101 3 187 7 190 9 9 85 9 99 -1z m881 -2
c91 0 96 -1 124 -29 21 -22 29 -39 29 -66 0 -43 -23 -90 -50 -105 -20 -10 -18
-14 27 -71 85 -106 84 -99 19 -99 l-56 0 -52 70 c-29 39 -58 70 -65 70 -9 0
-13 -20 -13 -70 l0 -70 -50 0 -50 0 0 183 c0 101 3 187 7 191 4 3 13 4 21 1 7
-3 56 -5 109 -5z m818 -4 c33 -14 35 -18 35 -60 0 -26 -2 -46 -6 -46 -3 0 -22
11 -42 25 -42 29 -71 31 -111 10 -64 -33 -68 -164 -6 -215 24 -20 89 -16 123
9 17 11 33 21 36 21 3 0 6 -20 6 -44 0 -44 -1 -44 -47 -60 -81 -28 -157 -14
-209 38 -86 86 -57 275 51 322 40 18 127 17 170 0z m379 -183 c31 -93 56 -173
56 -177 0 -4 -21 -6 -47 -4 -43 3 -47 5 -55 35 -9 36 -32 47 -89 41 -29 -3
-36 -8 -45 -38 -11 -33 -15 -35 -58 -38 -55 -4 -57 -24 18 203 l52 160 50 5
c29 3 52 1 56 -6 4 -6 32 -87 62 -181z m311 92 c28 -52 52 -95 55 -95 3 0 6
43 7 96 l2 97 40 1 41 1 0 -188 0 -188 -46 3 -46 3 -66 123 -67 123 -3 -125
-3 -126 -39 0 -40 0 0 184 0 185 48 3 c26 2 52 2 57 0 6 -1 33 -45 60 -97z
m-3523 -90 c32 -99 58 -181 58 -182 0 -2 -22 -3 -49 -3 -48 0 -49 1 -55 34 -8
39 -24 48 -85 44 -39 -2 -42 -4 -52 -40 -9 -37 -11 -38 -54 -38 -25 0 -45 3
-45 8 0 10 109 342 116 354 3 5 29 8 57 6 l50 -3 59 -180z m1778 150 l0 -35
-80 0 -80 0 0 -30 0 -30 76 0 75 0 -3 -37 -3 -38 -72 -3 -73 -3 0 -44 0 -45
80 0 80 0 0 -35 0 -35 -125 0 -125 0 0 185 0 185 125 0 125 0 0 -35z m700 5
c0 -25 -4 -30 -25 -30 l-25 0 0 -120 0 -120 25 0 c22 0 25 -4 25 -35 l0 -35
-100 0 -100 0 0 35 c0 31 3 35 25 35 l25 0 0 120 0 120 -25 0 c-21 0 -25 5
-25 30 l0 30 100 0 100 0 0 -30z m-1577 -581 c24 -30 23 -99 -3 -127 -31 -33
-92 -30 -119 4 -23 30 -28 90 -8 115 34 43 97 47 130 8z m831 21 c16 -6 26
-17 26 -29 0 -17 -3 -18 -30 -8 -51 19 -91 -25 -66 -74 13 -28 56 -39 56 -15
0 9 -7 16 -15 16 -8 0 -15 9 -15 20 0 16 7 20 36 20 l35 0 -3 -47 -3 -48 -51
-3 c-46 -3 -54 0 -73 24 -37 47 -20 123 33 144 28 12 40 12 70 0z m-574 -30
c0 -25 4 -30 25 -30 21 0 25 5 25 30 0 25 4 30 25 30 25 0 25 -1 25 -85 0 -84
0 -85 -25 -85 -22 0 -25 4 -25 35 0 31 -3 35 -25 35 -22 0 -25 -4 -25 -35 0
-31 -3 -35 -25 -35 -25 0 -25 1 -25 85 0 84 0 85 25 85 21 0 25 -5 25 -30z
m347 -12 l22 -43 0 43 c1 34 4 42 20 42 16 0 20 -9 23 -47 9 -134 -19 -163
-69 -71 l-28 52 -3 -52 c-3 -44 -6 -52 -23 -52 -17 0 -19 7 -19 85 l0 85 28 0
c23 0 32 -8 49 -42z"/>
<path d="M2330 2536 c26 -76 119 -269 170 -351 115 -188 325 -422 490 -547
274 -206 556 -329 899 -390 175 -31 468 -31 651 0 407 69 763 246 1059 528
102 96 224 243 304 364 54 82 163 301 196 393 l21 57 -58 0 -57 0 -38 -89
c-180 -427 -511 -777 -922 -976 -218 -105 -431 -163 -684 -186 -297 -27 -634
32 -921 160 -446 200 -809 580 -989 1034 l-23 57 -59 0 -58 0 19 -54z"/>
<path d="M2496 2568 c16 -52 106 -229 159 -313 78 -124 126 -185 230 -294 171
-177 312 -280 530 -386 241 -117 461 -172 725 -182 335 -12 595 44 895 193
180 89 302 174 446 312 177 170 288 320 389 527 84 173 83 165 15 165 l-55 0
-49 -105 c-248 -528 -759 -898 -1347 -975 -132 -18 -431 -7 -559 19 -483 100
-888 386 -1147 811 -36 61 -79 141 -95 180 l-28 70 -58 0 c-56 0 -58 -1 -51
-22z"/>
<path d="M2670 2580 c0 -16 85 -182 127 -247 171 -270 437 -501 727 -632 810
-365 1770 -34 2175 749 34 65 61 123 61 129 0 7 -22 11 -58 11 l-59 0 -19 -42
c-73 -167 -244 -386 -404 -519 -409 -341 -954 -451 -1466 -295 -344 105 -636
324 -842 631 -37 55 -81 128 -97 163 l-29 62 -58 0 c-33 0 -58 -4 -58 -10z"/>
<path d="M2850 2585 c0 -3 21 -43 46 -88 223 -393 577 -652 1024 -748 152 -33
438 -33 590 0 153 33 270 74 399 142 270 142 473 337 625 604 25 44 46 83 46
88 0 4 -27 7 -60 7 -58 0 -62 -2 -78 -31 -173 -320 -486 -570 -842 -672 -276
-80 -577 -71 -850 25 -157 56 -315 147 -453 262 -87 73 -225 240 -279 338
l-43 77 -62 1 c-35 0 -63 -2 -63 -5z"/>
<path d="M3040 2586 c0 -14 78 -132 135 -203 124 -156 308 -297 498 -380 196
-87 379 -119 611 -110 423 17 811 237 1051 598 69 102 69 99 -16 99 l-74 -1
-48 -67 c-181 -257 -474 -438 -791 -489 -136 -21 -337 -14 -466 17 -186 45
-361 132 -500 250 -96 81 -204 202 -239 268 -11 20 -19 22 -86 22 -41 0 -75
-2 -75 -4z"/>
<path d="M3293 2533 c423 -546 1202 -614 1709 -150 56 51 168 184 168 199 0 5
-19 8 -42 8 -39 0 -46 -5 -73 -41 -72 -99 -253 -238 -390 -299 -175 -79 -380
-112 -563 -92 -272 30 -488 136 -683 334 -88 89 -100 98 -133 98 l-37 0 44
-57z"/>
</g>
</svg>
