<?xml version="1.0" encoding="iso-8859-1"?>
<!-- Uploaded to: SVG Repo, www.svgrepo.com, Transformed by: SVG Repo Mixer Tools -->
<svg height="800px" width="800px" version="1.1" id="Layer_1" xmlns="http://www.w3.org/2000/svg" xmlns:xlink="http://www.w3.org/1999/xlink" 
	 viewBox="0 0 512 512" xml:space="preserve">
<path style="fill:#FF4181;" d="M395.818,46.65l-71.782-17.077c0,0-20.007,35.221-68.037,35.221s-68.037-35.221-68.037-35.221
	L116.181,46.65L11.584,140.416l52.166,80.77l52.431-24.57v285.814h279.637V196.615l52.431,24.57l52.166-80.77L395.818,46.65z"/>
<g>
	<path style="fill:#01121C;" d="M508.149,131.792L403.551,38.024c-1.438-1.288-3.174-2.196-5.052-2.643l-71.782-17.078
		c-5.011-1.193-10.209,1.069-12.754,5.549c-0.167,0.293-17.15,29.359-57.965,29.359c-40.289,0-57.299-28.225-57.965-29.359
		c-2.545-4.479-7.741-6.742-12.754-5.549L113.501,35.38c-1.878,0.447-3.614,1.355-5.052,2.643L3.852,131.792
		c-4.242,3.802-5.089,10.124-1.998,14.909l52.166,80.77c3.143,4.867,9.399,6.664,14.646,4.205l35.933-16.839v267.592
		c0,6.398,5.186,11.584,11.584,11.584h279.637c6.398,0,11.584-5.186,11.584-11.584V214.835l35.933,16.839
		c5.246,2.459,11.503,0.663,14.646-4.205l52.166-80.77C513.237,141.916,512.389,135.594,508.149,131.792z M444.007,206.405
		l-43.273-20.278c-3.587-1.682-7.787-1.412-11.13,0.714c-3.343,2.126-5.369,5.814-5.369,9.775v274.23H127.765v-274.23
		c0-3.962-2.026-7.65-5.369-9.775c-3.344-2.126-7.543-2.394-11.13-0.714l-43.273,20.278L26.681,142.44l95.043-85.201l61.339-14.593
		c9.524,11.845,32.583,33.733,72.937,33.733s63.414-21.887,72.937-33.733l61.339,14.593l95.043,85.201L444.007,206.405z"/>
	<path style="fill:#01121C;" d="M322.866,322.607c-5.012,0-9.281,3.184-10.894,7.639c-4.455,1.614-7.639,5.882-7.639,10.894
		c0,6.398,5.186,11.584,11.584,11.584h6.95c6.398,0,11.584-5.186,11.584-11.584v-6.95
		C334.45,327.793,329.264,322.607,322.866,322.607z"/>
	<path style="fill:#01121C;" d="M283.403,329.557h-11.147c-6.398,0-11.584,5.186-11.584,11.584s5.186,11.584,11.584,11.584h11.147
		c6.398,0,11.584-5.186,11.584-11.584S289.801,329.557,283.403,329.557z"/>
	<path style="fill:#01121C;" d="M239.743,329.557h-11.147c-6.398,0-11.584,5.186-11.584,11.584s5.186,11.584,11.584,11.584h11.147
		c6.398,0,11.584-5.186,11.584-11.584S246.141,329.557,239.743,329.557z"/>
	<path style="fill:#01121C;" d="M200.028,330.246c-1.614-4.455-5.882-7.639-10.894-7.639c-6.398,0-11.584,5.186-11.584,11.584v6.95
		c0,6.398,5.186,11.584,11.584,11.584h6.95c6.398,0,11.584-5.186,11.584-11.584C207.668,336.128,204.483,331.86,200.028,330.246z"/>
	<path style="fill:#01121C;" d="M189.134,214.174c6.398,0,11.584-5.186,11.584-11.584v-12.242c0-6.398-5.186-11.584-11.584-11.584
		s-11.584,5.186-11.584,11.584v12.242C177.55,208.988,182.736,214.174,189.134,214.174z"/>
	<path style="fill:#01121C;" d="M189.134,310.068c6.398,0,11.584-5.186,11.584-11.584v-12.242c0-6.398-5.186-11.584-11.584-11.584
		s-11.584,5.186-11.584,11.584v12.242C177.55,304.882,182.736,310.068,189.134,310.068z"/>
	<path style="fill:#01121C;" d="M189.134,262.121c6.398,0,11.584-5.186,11.584-11.584v-12.242c0-6.398-5.186-11.584-11.584-11.584
		s-11.584,5.186-11.584,11.584v12.242C177.55,256.935,182.736,262.121,189.134,262.121z"/>
	<path style="fill:#01121C;" d="M196.084,136.109h-6.95c-6.398,0-11.584,5.186-11.584,11.584v6.95
		c0,6.398,5.186,11.584,11.584,11.584c5.012,0,9.281-3.184,10.894-7.639c4.455-1.614,7.639-5.882,7.639-10.894
		C207.668,141.295,202.482,136.109,196.084,136.109z"/>
	<path style="fill:#01121C;" d="M239.744,136.109h-11.147c-6.398,0-11.584,5.186-11.584,11.584c0,6.398,5.186,11.584,11.584,11.584
		h11.147c6.398,0,11.584-5.186,11.584-11.584S246.142,136.109,239.744,136.109z"/>
	<path style="fill:#01121C;" d="M283.404,136.109h-11.147c-6.398,0-11.584,5.186-11.584,11.584c0,6.398,5.186,11.584,11.584,11.584
		h11.147c6.398,0,11.584-5.186,11.584-11.584S289.802,136.109,283.404,136.109z"/>
	<path style="fill:#01121C;" d="M322.866,136.109h-6.95c-6.398,0-11.584,5.186-11.584,11.584c0,5.012,3.184,9.281,7.639,10.894
		c1.614,4.455,5.882,7.639,10.894,7.639c6.398,0,11.584-5.186,11.584-11.584v-6.95C334.45,141.295,329.264,136.109,322.866,136.109z
		"/>
	<path style="fill:#01121C;" d="M322.866,178.765c-6.398,0-11.584,5.186-11.584,11.584v12.242c0,6.398,5.186,11.584,11.584,11.584
		c6.398,0,11.584-5.186,11.584-11.584v-12.242C334.45,183.951,329.264,178.765,322.866,178.765z"/>
	<path style="fill:#01121C;" d="M322.866,226.712c-6.398,0-11.584,5.186-11.584,11.584v12.242c0,6.398,5.186,11.584,11.584,11.584
		c6.398,0,11.584-5.186,11.584-11.584v-12.242C334.45,231.898,329.264,226.712,322.866,226.712z"/>
	<path style="fill:#01121C;" d="M322.866,274.659c-6.398,0-11.584,5.186-11.584,11.584v12.242c0,6.398,5.186,11.584,11.584,11.584
		c6.398,0,11.584-5.186,11.584-11.584v-12.242C334.45,279.847,329.264,274.659,322.866,274.659z"/>
</g>
</svg>